<svg width="24" height="24" viewBox="0 0 24 24" fill="none" xmlns="http://www.w3.org/2000/svg">
<path d="M14.2495 3.77202H16.5424C17.0728 3.77202 17.5052 3.77202 17.824 3.86621C17.824 3.86621 17.824 3.91549 17.824 5.36621L17.9566 19.4014C17.9566 19.9318 17.8751 20.4216 17.5 20.7966C17.1249 21.1717 17.0728 21.3662 16.5424 21.3662H2.54236C2.01193 21.3662 1.54236 21.3662 1.12814 20.7804C1.04236 20.3662 1.04238 19.9318 1.04238 19.4014L1.04236 5.36621C1.04236 4.26621 1.44236 3.77202 2.54236 3.77202H4.79968V2.36621C4.79968 2.10099 4.7935 1.84664 4.98104 1.6591C5.16858 1.47157 5.27714 1.36621 5.54236 1.36621C5.80757 1.36621 5.88881 1.47157 6.07634 1.6591C6.26388 1.84664 6.24946 2.10099 6.24946 2.36621V3.77202H12.8353V2.36621C12.8353 2.10099 12.8155 1.84664 13.003 1.6591C13.1905 1.47157 13.2771 1.36621 13.5424 1.36621C13.8076 1.36621 13.8812 1.47157 14.0688 1.6591C14.2563 1.84664 14.2555 2.10099 14.2555 2.36621L14.2495 3.77202ZM12.8353 5.36621L6.24946 5.29319V6.36621C6.24946 6.63143 6.26388 6.88578 6.07634 7.07332C5.88881 7.26085 5.80757 7.36621 5.54236 7.36621C5.27714 7.36621 5.16858 7.26085 4.98104 7.07332C4.7935 6.88578 4.79968 6.63143 4.79968 6.36621V5.36621H2.54236V9.86621H16.5424V5.36621H14.2495L14.2555 6.4762C14.2555 6.74142 14.3096 6.88578 14.1221 7.07332C13.9345 7.26085 13.8076 7.36621 13.5424 7.36621C13.2771 7.36621 13.1905 7.26085 13.003 7.07332C12.8155 6.88578 12.8353 6.74142 12.8353 6.4762V5.36621ZM16.5424 11.3662H2.54236V19.8662H16.5424V11.3662Z" fill="#777777"/>
</svg>
