<svg width="181" height="180" viewBox="0 0 181 180" fill="none" xmlns="http://www.w3.org/2000/svg">
<rect x="0.837891" width="180" height="180" rx="5" fill="#F3F3F3"/>
<path d="M62.146 100.314H63.64V116.622H62.146V100.314ZM55.054 101.574C57.466 101.574 59.194 103.788 59.194 107.244C59.194 110.718 57.466 112.932 55.054 112.932C52.66 112.932 50.932 110.718 50.932 107.244C50.932 103.788 52.66 101.574 55.054 101.574ZM55.054 102.924C53.47 102.924 52.354 104.616 52.354 107.244C52.354 109.89 53.47 111.618 55.054 111.618C56.656 111.618 57.754 109.89 57.754 107.244C57.754 104.616 56.656 102.924 55.054 102.924ZM67.8146 101.916H75.3026V112.518H67.8146V101.916ZM73.8446 103.122H69.2726V111.312H73.8446V103.122ZM78.7046 100.314H80.1986V116.622H78.7046V100.314ZM87.7572 102.654H88.9632V105.3C88.9632 108.738 86.8932 112.194 84.3012 113.472L83.4372 112.284C85.7952 111.168 87.7572 108.108 87.7572 105.3V102.654ZM88.0452 102.654H89.2512V105.3C89.2512 108.054 91.2132 110.862 93.6072 111.888L92.7612 113.076C90.1332 111.852 88.0452 108.684 88.0452 105.3V102.654ZM83.9772 101.988H93.0672V103.248H83.9772V101.988ZM95.2632 100.332H96.7572V116.604H95.2632V100.332ZM100.014 108.072H114.72V109.314H100.014V108.072ZM101.868 105.318H113.01V106.524H101.868V105.318ZM101.868 100.98H112.884V102.204H103.344V105.894H101.868V100.98ZM107.34 110.718C110.814 110.718 112.92 111.78 112.92 113.652C112.92 115.524 110.814 116.568 107.34 116.568C103.866 116.568 101.76 115.524 101.76 113.652C101.76 111.78 103.866 110.718 107.34 110.718ZM107.34 111.87C104.802 111.87 103.272 112.518 103.272 113.652C103.272 114.768 104.802 115.398 107.34 115.398C109.896 115.398 111.408 114.768 111.408 113.652C111.408 112.518 109.896 111.87 107.34 111.87ZM116.554 109.278H131.314V110.502H116.554V109.278ZM118.426 100.746H129.406V104.688H119.938V106.884H118.462V103.59H127.948V101.916H118.426V100.746ZM118.462 106.398H129.766V107.568H118.462V106.398ZM123.178 107.01H124.672V109.89H123.178V107.01ZM118.192 111.744H129.514V116.46H128.02V112.968H118.192V111.744Z" fill="#777777"/>
<path fill-rule="evenodd" clip-rule="evenodd" d="M90.438 64.1172C86.5714 64.1172 83.438 67.2463 83.438 71.1076C83.438 74.968 86.5714 78.098 90.438 78.098C94.3037 78.098 97.438 74.968 97.438 71.1076C97.438 67.2471 94.3037 64.1172 90.438 64.1172ZM94.4236 74.5198C92.5371 76.7183 89.2235 76.9725 87.022 75.0877C84.8196 73.2038 84.5659 69.8939 86.4532 67.6963C88.3389 65.4969 91.6534 65.2435 93.8549 67.1283C96.0555 69.0113 96.3101 72.3222 94.4236 74.5198Z" fill="#777777"/>
<path fill-rule="evenodd" clip-rule="evenodd" d="M90.438 67.6128C88.5051 67.6128 86.9389 69.1778 86.938 71.1071V71.1089C86.938 71.3492 87.134 71.5458 87.3755 71.5458C87.617 71.5458 87.813 71.3492 87.813 71.1089V71.1071C87.8139 69.6601 88.9881 68.4866 90.438 68.4866C90.6795 68.4866 90.8755 68.2909 90.8755 68.0497C90.8755 67.8085 90.6795 67.6128 90.438 67.6128Z" fill="#777777"/>
<path fill-rule="evenodd" clip-rule="evenodd" d="M102.243 63.2795L98.4512 62.6477L97.2499 59.6471C96.8482 58.6466 95.891 58 94.813 58H86.063C84.985 58 84.0277 58.6466 83.6252 59.648L82.4247 62.6477L78.6334 63.2795C77.3611 63.4901 76.438 64.5771 76.438 65.8642V78.9712C76.438 80.4165 77.6157 81.5926 79.063 81.5926H101.813C103.26 81.5926 104.438 80.4165 104.438 78.9712V65.8642C104.438 64.5771 103.515 63.4901 102.243 63.2795ZM102.688 78.9712C102.688 79.4544 102.297 79.845 101.813 79.845H79.063C78.5791 79.845 78.188 79.4544 78.188 78.9712V65.8642C78.188 65.4369 78.4977 65.0725 78.9195 65.0026L83.683 64.2101L85.2501 60.2972C85.384 59.966 85.7051 59.7476 86.063 59.7476H94.813C95.17 59.7476 95.4911 59.9652 95.625 60.2972L97.1921 64.2101L101.956 65.0026C102.378 65.0725 102.688 65.4369 102.688 65.8642V78.9712Z" fill="#777777"/>
</svg>
