<svg width="16" height="18" viewBox="0 0 16 18" fill="none" xmlns="http://www.w3.org/2000/svg">
<path id="icon" fill-rule="evenodd" clip-rule="evenodd" d="M10.7581 10.089L16 15.7181L14.6369 17.1818L9.39508 11.5528C8.41624 12.3092 7.23613 12.7709 5.94625 12.7709C2.66209 12.7709 0 9.91221 0 6.38547C0 2.85872 2.66209 0 5.94625 0C9.23042 0 11.8925 2.85872 11.8925 6.38547C11.8925 7.77062 11.4626 9.03789 10.7581 10.089ZM5.94625 1.96476C3.66838 1.96476 1.82962 3.93934 1.82962 6.38547C1.82962 8.83159 3.66838 10.8062 5.94625 10.8062C8.22413 10.8062 10.0629 8.83159 10.0629 6.38547C10.0629 3.93934 8.22413 1.96476 5.94625 1.96476Z" fill="#572A01"/>
</svg>
